<svg id="Layer_2" data-name="Layer 2" xmlns="http://www.w3.org/2000/svg" viewBox="0 0 147.991 42"><defs><style>.cls-1{fill:#ed832b;}.cls-2{fill:#333;}</style></defs><title>logo</title><path class="cls-1" d="M25.933,0.621a19.443,19.443,0,0,0-5.743-.6A23.11,23.11,0,0,0,14.39.5L13.954,12.035H26.368Z" transform="translate(-0.005 0)"/><path class="cls-1" d="M28.764,3l-1.307,9.032h5.227c0.719,0,1.307,1.438,1.307,2.153L32.55,23.651c0,0.716-.588,2.378-1.307,2.378H9.191c-0.719,0-1.416-1.182-1.416-1.9L6.331,14.487c0-.716.7-2.452,1.416-2.452h5.118L11.558,3A20.806,20.806,0,0,0,0,21.657,20.368,20.368,0,0,0,20.22,42,20.517,20.517,0,0,0,28.764,3ZM26.607,33.409a1,1,0,0,1-1.029.616h-3.11c-0.453,0-1.28,1.262-2.228,1.262s-1.775-1.262-2.228-1.262H14.9c-0.389,0-1.186-.228-1.186-0.616L13.3,31.958a1.014,1.014,0,0,1,.791-0.932H18.01c0.453,0,1.28-1.262,2.228-1.262s1.777,1.262,2.229,1.262h3.924a0.884,0.884,0,0,1,.635.933Z" transform="translate(-0.005 0)"/><path class="cls-1" d="M8.785,15.533l0.8,6.6c0,0.461.379,1.9,0.843,1.9H29.891c0.463,0,.843-1.109.843-1.57l0.8-6.56c0-.466-0.376-1.865-0.843-1.865H9.628C9.164,14.034,8.785,15.072,8.785,15.533Z" transform="translate(-0.005 0)"/><path class="cls-2" d="M74.9,33.9q0,2.147-2.49,2.147H54.736a2.328,2.328,0,0,1-1.722-.64,2.2,2.2,0,0,1-.643-1.631,3.171,3.171,0,0,1,.663-1.9l14.852-20.68H54.9q-2.489,0-2.49-2.105,0-2.147,2.49-2.147H72.035a2.336,2.336,0,0,1,1.722.64A2.158,2.158,0,0,1,74.4,9.171a3.184,3.184,0,0,1-.706,1.9L58.843,31.793H72.408Q74.9,31.793,74.9,33.9Z" transform="translate(-0.005 0)"/><path class="cls-2" d="M79.729,35.548A2.656,2.656,0,0,1,79,33.608V9.378a2.587,2.587,0,0,1,.726-1.92,2.616,2.616,0,0,1,1.929-.721,2.676,2.676,0,0,1,1.97.723,2.6,2.6,0,0,1,.726,1.92V33.608a2.663,2.663,0,0,1-.726,1.94,2.628,2.628,0,0,1-1.97.743A2.571,2.571,0,0,1,79.729,35.548Z" transform="translate(-0.005 0)"/><path class="cls-2" d="M114.471,20.874a1.94,1.94,0,0,1,.581,1.466v8.875a5.3,5.3,0,0,1-.5,2.683,3.655,3.655,0,0,1-2.034,1.279,21.4,21.4,0,0,1-3.857.909,28.523,28.523,0,0,1-4.232.329,16.387,16.387,0,0,1-7.838-1.775A12.011,12.011,0,0,1,91.51,29.5a17.072,17.072,0,0,1-1.764-8.028,16.88,16.88,0,0,1,1.764-7.946,12.266,12.266,0,0,1,5-5.16,15.481,15.481,0,0,1,7.633-1.8,14.391,14.391,0,0,1,9.583,3.138,3.2,3.2,0,0,1,.726.907,2.369,2.369,0,0,1,.228,1.074,2.35,2.35,0,0,1-.5,1.526,1.494,1.494,0,0,1-1.2.62,2.262,2.262,0,0,1-.83-0.145,4.644,4.644,0,0,1-.871-0.476,13.3,13.3,0,0,0-3.4-1.8,11.488,11.488,0,0,0-3.568-.516q-4.522,0-6.823,2.662t-2.3,7.907q0,10.733,9.458,10.731a20.928,20.928,0,0,0,5.641-.785v-7.3h-4.7a2.271,2.271,0,0,1-1.555-.5,2.039,2.039,0,0,1,0-2.809,2.27,2.27,0,0,1,1.555-.494h7.343A2.122,2.122,0,0,1,114.471,20.874Z" transform="translate(-0.005 0)"/><path class="cls-2" d="M126.691,34.6a12.167,12.167,0,0,1-4.834-5.2,17.43,17.43,0,0,1-1.7-7.924,17.486,17.486,0,0,1,1.678-7.907,12.035,12.035,0,0,1,4.834-5.18,16.05,16.05,0,0,1,14.831,0,12.084,12.084,0,0,1,4.811,5.18,17.491,17.491,0,0,1,1.68,7.9,17.43,17.43,0,0,1-1.7,7.924,12.167,12.167,0,0,1-4.834,5.2A15.919,15.919,0,0,1,126.691,34.6Zm13.69-5.2q2.259-2.764,2.262-7.924t-2.262-7.907a8.618,8.618,0,0,0-12.176-.437q-0.226.211-.437,0.437-2.259,2.746-2.259,7.907t2.259,7.924a8.572,8.572,0,0,0,12.108.5q0.261-.24.5-0.5Z" transform="translate(-0.005 0)"/></svg>